<svg xmlns="http://www.w3.org/2000/svg" width="167.7105712890625" height="215.7499542236328" viewBox="4.4450531005859375 -21.890422821044922 167.7105712890625 215.7499542236328"><title>Neo4j Graph Visualization</title><desc>Created using Neo4j (http://www.neo4j.com/)</desc><g class="layer relationships"><g class="relationship" transform="translate(69.96444597845904 164.85952439878935) rotate(252.93797036707133)"><path class="outline" fill="#A5ABB6" stroke="none" d="M 17.324116139070416,18.03122292025696 L 18.031222920256962,17.324116139070412 A 47.02074877201994 47.02074877201994 0 0 0 19.4461317265959,18.681222595480932 L 18.769116103957238,19.417191240671187 A 48.02074877201994 48.02074877201994 0 0 1 17.324116139070416,18.03122292025696 Z M 80.52398928668515,22.1644836826761 L 79.91500094724668,21.371304508448745 A 47.02074877201994 47.02074877201994 0 0 0 81.44482916945964,20.14520073029325 L 79.52025863046464,17.843890616372814 L 87.1353145251065,16.038087824958318 L 84.01092322145297,23.213614215520497 L 82.08635268245797,20.91230410160006 A 48.02074877201994 48.02074877201994 0 0 1 80.52398928668515,22.1644836826761"/><text text-anchor="middle" pointer-events="none" font-size="8px" fill="#000000" x="49.167943931635186" y="34.549220171015556" transform="rotate(180 49.167943931635186 31.549220171015556)" font-family="sans-serif">CHEAPEST_F…</text></g><g class="relationship" transform="translate(38.771513319957265 63.22570421537423) rotate(349.0607320422703)"><path class="outline" fill="#A5ABB6" stroke="none" d="M 5.987513214418485,-24.277555179777966 L 6.953439040707552,-24.018736134675446 A 45.89179665619872 45.89179665619872 0 0 1 14.048850666667526,-38.969893506947685 L 13.237536604200116,-39.55450405427183 A 46.89179665619872 46.89179665619872 0 0 0 5.987513214418485,-24.277555179777966 Z M 85.61401751602179,-44.080375809399285 L 84.88185305830214,-43.399247916230834 A 45.89179665619872 45.89179665619872 0 0 1 93.78456942201457,-29.448491153261173 L 91.00609514949743,-28.317084631731284 L 96.8875970176705,-23.15395227097617 L 97.48920178537075,-30.957033181967695 L 94.71072751285361,-29.825626660437806 A 46.89179665619872 46.89179665619872 0 0 0 85.61401751602179,-44.080375809399285"/><text text-anchor="middle" pointer-events="none" font-size="8px" fill="#000000" x="48.386177656141115" y="-55.44242413120445" font-family="sans-serif">CHEAPEST_FLIGHT</text></g><g class="relationship" transform="translate(69.96444597845904 164.85952439878935) rotate(252.93797036707133)"><path class="outline" fill="#A5ABB6" stroke="none" d="M 24.018736134675446,6.953439040707552 L 24.277555179777966,5.987513214418485 A 104.32910005887486 104.32910005887486 0 0 0 26.50989039402732,6.559318199557751 L 26.272468401261964,7.530724807189856 A 105.32910005887486 105.32910005887486 0 0 1 24.018736134675446,6.953439040707552 Z M 72.99660415650965,8.279361887503612 L 72.79042475394237,7.3008476801683315 A 104.32910005887486 104.32910005887486 0 0 0 75.03993286961585,6.800852992869859 L 74.3567096953686,3.8796877982648854 L 81.969855519402,5.693526452060432 L 75.95089710194553,10.695739919009823 L 75.26767392769827,7.774574724404849 A 105.32910005887486 105.32910005887486 0 0 1 72.99660415650965,8.279361887503612"/><text text-anchor="middle" pointer-events="none" font-size="8px" fill="#000000" x="49.60050539627103" y="13.028987807187562" transform="rotate(180 49.60050539627103 10.028987807187562)" font-family="sans-serif">CHEAPE…</text></g><g class="relationship" transform="translate(38.771513319957265 63.22570421537423) rotate(349.0607320422703)"><path class="outline" fill="#A5ABB6" stroke="none" d="M 12.698856172145504,-21.540405101092272 L 13.549972844582506,-21.015428520757713 A 44.331804349592815 44.331804349592815 0 0 1 14.742505997819585,-22.846253544110144 L 13.918289497183238,-23.412528353790726 A 45.331804349592815 45.331804349592815 0 0 0 12.698856172145504,-21.540405101092272 Z M 85.65332493102598,-27.298163442595012 L 84.89509757214525,-26.646173203216577 A 44.331804349592815 44.331804349592815 0 0 1 86.27841189770517,-24.95487279690086 L 83.91011885625869,-23.113354925731485 L 90.97000243734146,-19.73577534538731 L 89.43613595296713,-27.41022995846003 L 87.06784291152066,-25.568712087290653 A 45.331804349592815 45.331804349592815 0 0 0 85.65332493102598,-27.298163442595012"/><text text-anchor="middle" pointer-events="none" font-size="8px" fill="#000000" x="48.85668378400353" y="-39.50844974285289" font-family="sans-serif">CHEAPEST_FLIGHT</text></g><g class="relationship" transform="translate(38.771513319957265 63.22570421537423) rotate(349.0607320422703)"><path class="outline" fill="#A5ABB6" stroke="none" d="M 18.343228848217933,-16.993409175968942 L 19.008024713831873,-16.246384104727944 A 48.54646005070999 48.54646005070999 0 0 1 19.300453669686014,-16.50452602349052 L 18.6416814967481,-17.25686851475541 A 49.54646005070999 49.54646005070999 0 0 0 18.343228848217933,-16.993409175968942 Z M 80.7030830967694,-19.846018432855118 L 80.10926524538465,-19.041418930383983 A 48.54646005070999 48.54646005070999 0 0 1 80.42217953922544,-18.80853142716732 L 78.6213889854106,-16.409124546021225 L 86.32092735420214,-15.006587948457035 L 82.82323361097856,-22.007740602028782 L 81.02244305716373,-19.608333720882687 A 49.54646005070999 49.54646005070999 0 0 0 80.7030830967694,-19.846018432855118"/><text text-anchor="middle" pointer-events="none" font-size="8px" fill="#000000" x="49.23711158853011" y="-25.984794605488567" font-family="sans-serif">CHEAPEST_F…</text></g><g class="relationship" transform="translate(38.771513319957265 63.22570421537423) rotate(349.0607320422703)"><path class="outline" fill="#A5ABB6" stroke="none" d="M 22.446385545045896,-11.018610437035811 L 22.869003806786598,-10.112302649999162 A 67.22971866365334 67.22971866365334 0 0 1 24.36836895569441,-10.789259581496566 L 23.968052812402387,-11.705636679322453 A 68.22971866365334 68.22971866365334 0 0 0 22.446385545045896,-11.018610437035811 Z M 75.27596322223195,-13.052924375271822 L 74.92429164793191,-12.116800930511815 A 67.22971866365334 67.22971866365334 0 0 1 76.45711826182318,-11.519465925168623 L 75.3337040285119,-8.7377505442582 L 83.13502318949939,-9.361785277594032 L 77.95500390623823,-15.22841976638252 L 76.83158967292695,-12.446704385472097 A 68.22971866365334 68.22971866365334 0 0 0 75.27596322223195,-13.052924375271822"/><text text-anchor="middle" pointer-events="none" font-size="8px" fill="#000000" x="49.50361768683882" y="-13.887865061866755" font-family="sans-serif">CHEAPES…</text></g><g class="relationship" transform="translate(38.771513319957265 63.22570421537423) rotate(432.93797036707133)"><path class="outline" fill="#A5ABB6" stroke="none" d="M 24.018736134675446,6.953439040707552 L 24.277555179777966,5.987513214418485 A 104.32910005887486 104.32910005887486 0 0 0 26.50989039402732,6.559318199557751 L 26.272468401261964,7.530724807189856 A 105.32910005887486 105.32910005887486 0 0 1 24.018736134675446,6.953439040707552 Z M 72.99660415650965,8.279361887503612 L 72.79042475394237,7.3008476801683315 A 104.32910005887486 104.32910005887486 0 0 0 75.03993286961585,6.800852992869859 L 74.3567096953686,3.8796877982648854 L 81.969855519402,5.693526452060432 L 75.95089710194553,10.695739919009823 L 75.26767392769827,7.774574724404849 A 105.32910005887486 105.32910005887486 0 0 1 72.99660415650965,8.279361887503612"/><text text-anchor="middle" pointer-events="none" font-size="8px" fill="#000000" x="49.60050539627103" y="13.028987807187562" font-family="sans-serif">CHEAPE…</text></g><g class="relationship" transform="translate(38.771513319957265 63.22570421537423) rotate(349.0607320422703)"><path class="outline" fill="#A5ABB6" stroke="none" d="M 24.663575034869986,-4.118017301971641 L 24.808506894177235,-3.1285756633906963 A 182.65827733181604 182.65827733181604 0 0 1 26.33811622256819,-3.3460266829593195 L 26.201558521556613,-4.336658801505081 A 183.65827733181604 183.65827733181604 0 0 0 24.663575034869986,-4.118017301971641 Z M 73.09777846305221,-4.756796757859689 L 72.97899117976576,-3.763877032338314 A 182.65827733181604 182.65827733181604 0 0 1 74.51225091560892,-3.5738659119946803 L 74.1307066361618,-0.5982274993475412 L 81.51899792502675,-3.179535662059274 L 75.0209766215384,-7.541383795524199 L 74.63943234209128,-4.5657453828770596 A 183.65827733181604 183.65827733181604 0 0 0 73.09777846305221,-4.756796757859689"/><text text-anchor="middle" pointer-events="none" font-size="8px" fill="#000000" x="49.64068209981155" y="-2.5497979199818985" font-family="sans-serif">CHEAPE…</text></g><g class="relationship" transform="translate(38.771513319957265 63.22570421537423) rotate(349.0607320422703)"><path class="outline" fill="#A5ABB6" stroke="none" d="M 24.663575034869986,4.118017301971641 L 24.808506894177235,3.1285756633906963 A 182.65827733181604 182.65827733181604 0 0 0 26.33811622256819,3.3460266829593195 L 26.201558521556613,4.336658801505081 A 183.65827733181604 183.65827733181604 0 0 1 24.663575034869986,4.118017301971641 Z M 73.09777846305225,4.756796757859661 L 72.9789911797658,3.7638770323382857 A 182.65827733181604 182.65827733181604 0 0 0 74.51225091560892,3.5738659119946803 L 74.1307066361618,0.5982274993475412 L 81.51899792502675,3.179535662059274 L 75.0209766215384,7.541383795524199 L 74.63943234209128,4.5657453828770596 A 183.65827733181604 183.65827733181604 0 0 1 73.09777846305225,4.756796757859661"/><text text-anchor="middle" pointer-events="none" font-size="8px" fill="#000000" x="49.64068209981157" y="8.549797919981899" font-family="sans-serif">CHEAPE…</text></g><g class="relationship" transform="translate(38.771513319957265 63.22570421537423) rotate(432.93797036707133)"><path class="outline" fill="#A5ABB6" stroke="none" d="M 17.324116139070416,18.03122292025696 L 18.031222920256962,17.324116139070412 A 47.02074877201994 47.02074877201994 0 0 0 19.4461317265959,18.681222595480932 L 18.769116103957238,19.417191240671187 A 48.02074877201994 48.02074877201994 0 0 1 17.324116139070416,18.03122292025696 Z M 80.52398928668515,22.1644836826761 L 79.91500094724668,21.371304508448745 A 47.02074877201994 47.02074877201994 0 0 0 81.44482916945964,20.14520073029325 L 79.52025863046464,17.843890616372814 L 87.1353145251065,16.038087824958318 L 84.01092322145297,23.213614215520497 L 82.08635268245797,20.91230410160006 A 48.02074877201994 48.02074877201994 0 0 1 80.52398928668515,22.1644836826761"/><text text-anchor="middle" pointer-events="none" font-size="8px" fill="#000000" x="49.167943931635186" y="34.549220171015556" font-family="sans-serif">CHEAPEST_F…</text></g><g class="relationship" transform="translate(38.771513319957265 63.22570421537423) rotate(349.0607320422703)"><path class="outline" fill="#A5ABB6" stroke="none" d="M 22.446385545045896,11.018610437035811 L 22.869003806786598,10.112302649999162 A 67.22971866365334 67.22971866365334 0 0 0 24.368368955694425,10.789259581496573 L 23.9680528124024,11.70563667932246 A 68.22971866365334 68.22971866365334 0 0 1 22.446385545045896,11.018610437035811 Z M 75.27596322223195,13.052924375271822 L 74.92429164793191,12.116800930511815 A 67.22971866365334 67.22971866365334 0 0 0 76.45711826182318,11.519465925168623 L 75.3337040285119,8.7377505442582 L 83.13502318949939,9.361785277594032 L 77.95500390623823,15.22841976638252 L 76.83158967292695,12.446704385472097 A 68.22971866365334 68.22971866365334 0 0 1 75.27596322223195,13.052924375271822"/><text text-anchor="middle" pointer-events="none" font-size="8px" fill="#000000" x="49.50361768683883" y="19.887865061866755" font-family="sans-serif">CHEAPES…</text></g><g class="relationship" transform="translate(38.771513319957265 63.22570421537423) rotate(349.0607320422703)"><path class="outline" fill="#A5ABB6" stroke="none" d="M 18.343228848217933,16.993409175968942 L 19.008024713831873,16.246384104727944 A 48.54646005070999 48.54646005070999 0 0 0 19.300453669686007,16.50452602349052 L 18.64168149674809,17.256868514755404 A 49.54646005070999 49.54646005070999 0 0 1 18.343228848217933,16.993409175968942 Z M 80.70308309676942,19.846018432855104 L 80.10926524538466,19.041418930383976 A 48.54646005070999 48.54646005070999 0 0 0 80.42217953922544,18.80853142716732 L 78.6213889854106,16.409124546021225 L 86.32092735420214,15.006587948457035 L 82.82323361097856,22.007740602028782 L 81.02244305716373,19.608333720882687 A 49.54646005070999 49.54646005070999 0 0 1 80.70308309676942,19.846018432855104"/><text text-anchor="middle" pointer-events="none" font-size="8px" fill="#000000" x="49.23711158853011" y="31.984794605488567" font-family="sans-serif">CHEAPEST_F…</text></g><g class="relationship" transform="translate(38.771513319957265 63.22570421537423) rotate(349.0607320422703)"><path class="outline" fill="#A5ABB6" stroke="none" d="M 12.698856172145504,21.540405101092272 L 13.549972844582506,21.015428520757713 A 44.331804349592815 44.331804349592815 0 0 0 13.89304934918426,21.562677504321083 L 13.049671511419909,22.099998472428535 A 45.331804349592815 45.331804349592815 0 0 1 12.698856172145504,21.540405101092272 Z M 86.65863506918694,26.087137670461736 L 85.87823100340947,25.461862135902773 A 44.331804349592815 44.331804349592815 0 0 0 86.27841189770517,24.95487279690086 L 83.91011885625869,23.113354925731485 L 90.97000243734146,19.73577534538731 L 89.43613595296713,27.41022995846003 L 87.06784291152066,25.568712087290653 A 45.331804349592815 45.331804349592815 0 0 1 86.65863506918694,26.087137670461736"/><text text-anchor="middle" pointer-events="none" font-size="8px" fill="#000000" x="48.85668378400353" y="45.50844974285289" font-family="sans-serif">CHEAPEST_FLIGH…</text></g><g class="relationship" transform="translate(38.771513319957265 63.22570421537423) rotate(349.0607320422703)"><path class="outline" fill="#A5ABB6" stroke="none" d="M 5.987513214418485,24.277555179777966 L 6.953439040707552,24.018736134675446 A 45.89179665619872 45.89179665619872 0 0 0 7.292667876860385,25.21924209047823 L 6.3341339781241714,25.50422062471116 A 46.89179665619872 46.89179665619872 0 0 1 5.987513214418485,24.277555179777966 Z M 94.21399196472753,30.999555049588025 L 93.2984271030575,30.597384707475186 A 45.89179665619872 45.89179665619872 0 0 0 93.78456942201457,29.448491153261173 L 91.00609514949743,28.317084631731284 L 96.8875970176705,23.15395227097617 L 97.48920178537075,30.957033181967695 L 94.71072751285361,29.825626660437806 A 46.89179665619872 46.89179665619872 0 0 1 94.21399196472753,30.999555049588025"/><text text-anchor="middle" pointer-events="none" font-size="8px" fill="#000000" x="48.386177656141136" y="61.44242413120445" font-family="sans-serif">CHEAPEST_FLIGHT_BUSI…</text></g></g><g class="layer nodes"><g class="node" transform="translate(69.96444597845904,164.85952439878935)"><circle class="outline" cx="0" cy="0" r="25" fill="#ECB5C9" stroke="#da7298" stroke-width="2px"/><text text-anchor="middle" pointer-events="none" font-family="sans-serif" dy="1.5625" font-size="25" fill="#2A2C34"/><text text-anchor="middle" pointer-events="none" x="0" y="5" font-size="10px" fill="#2A2C34" font-family="sans-serif"> MSN</text></g><g class="node" transform="translate(143.15561798510362,43.050291075444385)"><circle class="outline" cx="0" cy="0" r="25" fill="#ECB5C9" stroke="#da7298" stroke-width="2px"/><text text-anchor="middle" pointer-events="none" font-family="sans-serif" dy="1.5625" font-size="25" fill="#2A2C34"/><text text-anchor="middle" pointer-events="none" x="0" y="5" font-size="10px" fill="#2A2C34" font-family="sans-serif"> GRR</text></g><g class="node" transform="translate(38.771513319957265,63.22570421537423)"><circle class="outline" cx="0" cy="0" r="25" fill="#ECB5C9" stroke="#da7298" stroke-width="2px"/><text text-anchor="middle" pointer-events="none" font-family="sans-serif" dy="1.5625" font-size="25" fill="#2A2C34"/><text text-anchor="middle" pointer-events="none" x="0" y="5" font-size="10px" fill="#2A2C34" font-family="sans-serif"> ORD</text></g></g></svg>